<?xml version="1.0" encoding="UTF-8"?>
<svg xmlns="http://www.w3.org/2000/svg" xmlns:xlink="http://www.w3.org/1999/xlink" width="512" height="512" viewBox="0 0 58 58" version="1.1"><!-- Generator: Sketch 51.3 (57544) - http://www.bohemiancoding.com/sketch --><title>001 - Insurance Document</title><desc>Created with Sketch.</desc><defs/><g id="Page-1" stroke="none" stroke-width="1" fill="none" fill-rule="evenodd"><g id="001---Insurance-Document" fill-rule="nonzero"><path d="M46,23.86 L46,2 C45.9967052,0.896798134 45.1032019,0.00329480111 44,0 L6,0 C4.89679813,0.00329480111 4.0032948,0.896798134 4,2 L4,4 L24,33 L46,23.86 Z" id="Shape" fill="#4482C3"/><path d="M42,23.86 L42,16 L30,4 L2,4 C0.896798134,4.0032948 0.00329480111,4.89679813 0,6 L0,56 C0.00329480111,57.1032019 0.896798134,57.9967052 2,58 L40,58 C40.8441668,57.9966454 41.5958086,57.4648988 41.88,56.67" id="Shape" fill="#B0D3F0"/><path d="M42,16 L32,16 C30.8954305,16 30,15.1045695 30,14 L30,4 L42,16 Z" id="Shape" fill="#90BAE1"/><path d="M11,10 L5,10 C4.44771525,10 4,9.55228475 4,9 C4,8.44771525 4.44771525,8 5,8 L11,8 C11.5522847,8 12,8.44771525 12,9 C12,9.55228475 11.5522847,10 11,10 Z" id="Shape" fill="#285680"/><path d="M25,10 L16,10 C15.4477153,10 15,9.55228475 15,9 C15,8.44771525 15.4477153,8 16,8 L25,8 C25.5522847,8 26,8.44771525 26,9 C26,9.55228475 25.5522847,10 25,10 Z" id="Shape" fill="#285680"/><path d="M37,21 L5,21 C4.44771525,21 4,20.5522847 4,20 C4,19.4477153 4.44771525,19 5,19 L37,19 C37.5522847,19 38,19.4477153 38,20 C38,20.5522847 37.5522847,21 37,21 Z" id="Shape" fill="#285680"/><path d="M19,25 L5,25 C4.44771525,25 4,24.5522847 4,24 C4,23.4477153 4.44771525,23 5,23 L19,23 C19.5522847,23 20,23.4477153 20,24 C20,24.5522847 19.5522847,25 19,25 Z" id="Shape" fill="#285680"/><path d="M37,25 L23,25 C22.4477153,25 22,24.5522847 22,24 C22,23.4477153 22.4477153,23 23,23 L37,23 C37.5522847,23 38,23.4477153 38,24 C38,24.5522847 37.5522847,25 37,25 Z" id="Shape" fill="#285680"/><path d="M32.43,29 L5,29 C4.44771525,29 4,28.5522847 4,28 C4,27.4477153 4.44771525,27 5,27 L32.43,27 C32.9822847,27 33.43,27.4477153 33.43,28 C33.43,28.5522847 32.9822847,29 32.43,29 Z" id="Shape" fill="#285680"/><path d="M19,33 L5,33 C4.44771525,33 4,32.5522847 4,32 C4,31.4477153 4.44771525,31 5,31 L19,31 C19.5522847,31 20,31.4477153 20,32 C20,32.5522847 19.5522847,33 19,33 Z" id="Shape" fill="#285680"/><path d="M30,33 L23,33 C22.4477153,33 22,32.5522847 22,32 C22,31.4477153 22.4477153,31 23,31 L30,31 C30.5522847,31 31,31.4477153 31,32 C31,32.5522847 30.5522847,33 30,33 Z" id="Shape" fill="#285680"/><path d="M30,37 L5,37 C4.44771525,37 4,36.5522847 4,36 C4,35.4477153 4.44771525,35 5,35 L30,35 C30.5522847,35 31,35.4477153 31,36 C31,36.5522847 30.5522847,37 30,37 Z" id="Shape" fill="#285680"/><path d="M19,41 L5,41 C4.44771525,41 4,40.5522847 4,40 C4,39.4477153 4.44771525,39 5,39 L19,39 C19.5522847,39 20,39.4477153 20,40 C20,40.5522847 19.5522847,41 19,41 Z" id="Shape" fill="#285680"/><path d="M30,41 L23,41 C22.4477153,41 22,40.5522847 22,40 C22,39.4477153 22.4477153,39 23,39 L30,39 C30.5522847,39 31,39.4477153 31,40 C31,40.5522847 30.5522847,41 30,41 Z" id="Shape" fill="#285680"/><path d="M30.02,45 L5,45 C4.44771525,45 4,44.5522847 4,44 C4,43.4477153 4.44771525,43 5,43 L30.02,43 C30.5722847,43 31.02,43.4477153 31.02,44 C31.02,44.5522847 30.5722847,45 30.02,45 Z" id="Shape" fill="#285680"/><path d="M35.32,53 L5,53 C4.44771525,53 4,52.5522847 4,52 C4,51.4477153 4.44771525,51 5,51 L35.32,51 C35.8722847,51 36.32,51.4477153 36.32,52 C36.32,52.5522847 35.8722847,53 35.32,53 Z" id="Shape" fill="#285680"/><path d="M19,49 L5,49 C4.44771525,49 4,48.5522847 4,48 C4,47.4477153 4.44771525,47 5,47 L19,47 C19.5522847,47 20,47.4477153 20,48 C20,48.5522847 19.5522847,49 19,49 Z" id="Shape" fill="#285680"/><path d="M31.19,49 L23,49 C22.4477153,49 22,48.5522847 22,48 C22,47.4477153 22.4477153,47 23,47 L31.19,47 C31.7422847,47 32.19,47.4477153 32.19,48 C32.19,48.5522847 31.7422847,49 31.19,49 Z" id="Shape" fill="#285680"/><path d="M44.29,57.973 L54.131,50.967 C56.5523562,49.2542662 57.9942282,46.4748708 58,43.509 L58,29.376 C58.0002955,29.1769195 57.8824606,28.9966321 57.7,28.917 L44.2,23.086 C44.0724748,23.0303434 43.9275252,23.0303434 43.8,23.086 L30.3,28.917 C30.1175394,28.9966321 29.9997045,29.1769195 30,29.376 L30,43.509 C30.0057718,46.4748708 31.4476438,49.2542662 33.869,50.967 L43.71,57.973 C43.8835822,58.096589 44.1164178,58.096589 44.29,57.973 Z" id="Shape" fill="#894B9D"/><path d="M36.188,47.708 C34.8235742,46.7436208 34.0087098,45.1798109 34,43.509 L34,31.677 L44,27.357 L54,31.677 L54,43.509 C53.991115,45.1800413 53.1763259,46.7440788 51.812,47.709 L44,53.27 L36.188,47.708 Z" id="Shape" fill="#955BA5"/><path d="M36.188,47.708 C34.8235742,46.7436208 34.0087098,45.1798109 34,43.509 L34,31.677 L44,27.357 L54,31.677 L54,43.509 C53.991115,45.1800413 53.1763259,46.7440788 51.812,47.709 L44,53.27 L36.188,47.708 Z" id="Shape" fill="#B49ACA"/><path d="M42,46 C41.7836298,46 41.5730962,45.9298221 41.4,45.8 L37.4,42.8 C36.9581722,42.4686292 36.8686292,41.8418278 37.2,41.4 C37.5313708,40.9581722 38.1581722,40.8686292 38.6,41.2 L41.825,43.619 L49.219,34.375 C49.564178,33.9436656 50.1936656,33.873822 50.625,34.219 C51.0563344,34.564178 51.126178,35.1936656 50.781,35.625 L42.781,45.625 C42.5911385,45.8621369 42.3037783,46.000114 42,46 Z" id="Shape" fill="#3D324C"/></g></g></svg>
